<?xml version="1.0" standalone="no"?>
<!DOCTYPE svg PUBLIC "-//W3C//DTD SVG 20010904//EN"
 "http://www.w3.org/TR/2001/REC-SVG-20010904/DTD/svg10.dtd">
<svg version="1.0" xmlns="http://www.w3.org/2000/svg"
 width="900.000000pt" height="900.000000pt" viewBox="0 0 900.000000 900.000000"
 preserveAspectRatio="xMidYMid meet">
<metadata>
Created by potrace 1.16, written by Peter Selinger 2001-2019
</metadata>
<g transform="translate(0.000000,900.000000) scale(0.100000,-0.100000)"
fill="#000000" stroke="none">
<path d="M1787 7003 c-387 -460 -672 -1010 -818 -1583 -112 -438 -152 -898
-114 -1320 31 -348 86 -624 187 -930 158 -483 428 -964 753 -1342 l66 -78
3195 0 3195 0 -63 73 c-80 92 -151 183 -213 272 -27 39 -55 76 -64 82 -12 10
-611 13 -2923 13 l-2909 0 -28 31 c-40 43 -188 257 -254 364 -224 370 -377
779 -455 1220 -41 231 -47 305 -47 615 1 365 7 424 92 840 10 48 75 265 100
335 14 39 32 88 40 110 33 93 144 330 201 430 64 112 71 124 98 167 46 74 201
292 227 321 l26 27 2909 0 c2312 0 2911 3 2924 13 8 6 43 53 78 102 35 50 106
140 157 202 51 62 93 115 93 118 0 3 -1435 5 -3189 5 l-3190 0 -74 -87z"/>
<path d="M2407 6033 c-156 -189 -294 -418 -385 -640 -134 -327 -191 -619 -192
-978 0 -473 119 -900 368 -1315 57 -96 128 -194 209 -292 l65 -78 2557 0
c1407 0 2560 3 2563 6 4 3 -7 35 -23 72 -60 135 -86 202 -110 275 -11 33 -24
66 -30 74 -10 11 -410 13 -2374 13 l-2363 0 -30 38 c-128 164 -279 497 -333
732 -80 350 -67 750 34 1085 60 197 169 422 284 583 l44 62 2363 0 c1895 0
2366 3 2374 13 6 7 22 46 36 87 14 41 48 129 76 195 28 66 52 125 53 130 1 7
-859 11 -2560 13 l-2561 2 -65 -77z"/>
<path d="M3032 5070 c-90 -112 -168 -284 -203 -450 -18 -85 -18 -316 0 -400
20 -97 50 -187 87 -262 38 -79 112 -194 146 -225 l24 -23 2100 0 2099 0 -1 27
c0 16 -11 100 -22 188 -12 88 -22 175 -22 193 l0 32 -1954 0 c-1716 0 -1956 2
-1969 15 -21 21 -44 97 -56 183 -14 110 15 287 56 327 13 13 253 15 1969 15
l1954 0 0 33 c0 31 33 292 46 370 l7 37 -2106 0 -2106 0 -49 -60z"/>
</g>
</svg>
